PathFileType	4	(X/Y/Z)	C:/Users/opensim2020/Desktop/walking_exp_matlab/subject01_walking08_straight_04.trc																																																																																																																															
DataRate	CameraRate	NumFrames	NumMarkers	Units	OrigDataRate	OrigDataStartFrame	OrigNumFrames																																																																																																																											
100	100	5	43	mm	100	3819	256																																																																																																																											
Frame#	Time	LFHD			RFHD			LBHD			RBHD			C7			T10			CLAV			STRN			RBAK			LSHO			LUPA			LELB			LFRM			LWRA			LWRB			LFIN			RSHO			RUPA			RELB			RFRM			RWRA			RWRB			RFIN			LASI			RASI			LPSI			RPSI			LTHI			LKNE			LTIB			LANK			LHEE			LTOE			RTHI			RKNE			RTIB			RANK			RHEE			RTOE			*39			*40			*41			*42		
		X1	Y1	Z1	X2	Y2	Z2	X3	Y3	Z3	X4	Y4	Z4	X5	Y5	Z5	X6	Y6	Z6	X7	Y7	Z7	X8	Y8	Z8	X9	Y9	Z9	X10	Y10	Z10	X11	Y11	Z11	X12	Y12	Z12	X13	Y13	Z13	X14	Y14	Z14	X15	Y15	Z15	X16	Y16	Z16	X17	Y17	Z17	X18	Y18	Z18	X19	Y19	Z19	X20	Y20	Z20	X21	Y21	Z21	X22	Y22	Z22	X23	Y23	Z23	X24	Y24	Z24	X25	Y25	Z25	X26	Y26	Z26	X27	Y27	Z27	X28	Y28	Z28	X29	Y29	Z29	X30	Y30	Z30	X31	Y31	Z31	X32	Y32	Z32	X33	Y33	Z33	X34	Y34	Z34	X35	Y35	Z35	X36	Y36	Z36	X37	Y37	Z37	X38	Y38	Z38	X39	Y39	Z39	X40	Y40	Z40	X41	Y41	Z41	X42	Y42	Z42	X43	Y43	Z43
																																																																																																																																		
161	1.6	89.907	1662.7157	-1586.2157	106.68455	1668.45874	-1473.51074	-30.78526	1631.85352	-1574.87219	-16.37249	1637.63049	-1454.58997	-85.71174	1433.15039	-1528.93335	-120.48834	1139.11499	-1509.62524	56.57618	1364.78845	-1526.15747	99.92761	1210.24573	-1527.453	-140.49548	1238.79382	-1445.17371	-1.79536	1390.53516	-1688.57336	-18.54821	1204.79211	-1772.71191	-15.0508	1052.70569	-1776.16907	45.73611	956.12085	-1802.01282	149.47427	862.34387	-1783.68652	96.57938	845.56433	-1808.68274	159.08192	788.67499	-1818.52466	-6.4631	1395.33887	-1374.85632	-66.88302	1197.14893	-1271.67932	-67.75372	1071.10925	-1268.83643	-34.34755	954.57739	-1238.20313	53.20392	843.61859	-1258.24487	11.08476	841.35925	-1218.37854	53.27897	766.74072	-1222.36255	52.98344	932.43304	-1613.38611	55.29212	940.16498	-1396.46704	-132.62941	941.29755	-1556.27783	-127.87479	945.24493	-1410.8269	42.37745	598.62469	-1651.61902	41.9542	465.12576	-1628.65991	-12.18368	282.24008	-1633.39575	-49.9857	69.15868	-1577.9917	-97.09274	39.67923	-1525.8429	96.50648	33.06829	-1580.45313	83.80636	615.51733	-1322.13904	120.00604	461.33578	-1338.47668	-4.87139	336.17957	-1335.0354	-125.1311	168.25711	-1379.95239	-181.04582	154.37688	-1435.43945	-30.62298	62.82766	-1370.3252	97.98943	1702.71448	-1496.45459	-1973.10254	1023.30151	3101.95801	-2012.5238	1021.95233	3140.62622	NaN	NaN	NaN
162	1.61	97.02854	1662.69702	-1586.27966	113.83561	1668.27112	-1473.5835	-23.68909	1632.0271	-1575.0354	-9.3573	1637.71399	-1454.73523	-79.03366	1433.39673	-1529.36389	-114.19139	1139.36511	-1510.32068	63.66053	1365.18945	-1526.93347	106.38112	1210.26929	-1528.09998	-134.02666	1238.95972	-1445.88611	4.94616	1390.82349	-1688.98962	-11.36791	1205.25696	-1773.42505	-6.76995	1053.09229	-1777.29346	55.69242	957.4859	-1803.13794	161.21484	865.72083	-1784.84497	108.6353	847.93237	-1809.69617	172.14403	792.28723	-1819.77087	0.26115	1395.35962	-1375.14856	-60.73666	1197.18225	-1272.27271	-62.0389	1071.22925	-1269.47009	-29.69484	954.50439	-1238.83191	57.03893	842.77472	-1258.41748	14.21635	840.80957	-1218.60742	56.00776	765.83282	-1222.79919	58.95926	932.27924	-1614.09399	61.7284	940.66034	-1397.23535	-126.67976	941.32855	-1556.61389	-121.49332	945.26801	-1411.03943	45.1783	598.24158	-1651.94324	43.98182	464.72488	-1629.15356	-10.82245	282.0575	-1633.63831	-49.86555	69.25621	-1577.98206	-97.3315	40.10418	-1525.93811	96.45711	33.01576	-1580.57007	93.29556	616.9231	-1322.85913	131.21429	462.94211	-1339.56396	10.2609	333.55066	-1335.81201	-104.64783	161.55077	-1380.87939	-160.33025	145.69266	-1436.25671	-5.23974	61.09443	-1369.99438	105.09931	1702.5603	-1496.50891	-1973.13354	1023.56366	3101.99097	-2012.60193	1022.05792	3140.64844	NaN	NaN	NaN
163	1.62	104.12561	1662.67932	-1586.30994	120.86155	1668.11731	-1473.57861	-16.64716	1632.17493	-1575.16248	-2.33535	1637.65234	-1454.87146	-72.3223	1433.59753	-1529.7478	-107.80363	1139.58838	-1510.88684	70.1643	1364.98767	-1527.18787	112.90266	1210.2085	-1528.74866	-127.51777	1239.05383	-1446.58618	11.64931	1391.12085	-1689.34692	-4.3039	1205.71606	-1773.9502	1.47641	1053.48254	-1778.37476	65.62792	958.9303	-1804.18372	172.84531	869.15497	-1785.85681	120.66178	850.39221	-1810.72412	185.21571	796.00525	-1820.85559	7.00166	1395.24512	-1375.46619	-54.54716	1197.1427	-1272.85693	-56.39888	1071.2926	-1270.24158	-25.01672	954.44122	-1239.38403	60.73335	841.90503	-1258.53638	17.84523	840.35254	-1218.91443	58.6428	764.84601	-1222.89465	64.43384	932.02136	-1614.47339	68.14711	940.9953	-1397.95605	-120.60082	941.37628	-1556.86755	-115.00222	945.37433	-1411.34326	48.2325	597.86176	-1652.39404	46.21555	464.25183	-1629.4928	-9.35117	281.85242	-1633.76355	-49.72688	69.20546	-1577.90698	-97.58697	40.58782	-1526.10413	96.60871	32.92471	-1580.49219	102.50835	618.2063	-1323.5177	141.7207	464.60855	-1340.76831	24.91961	330.92023	-1336.06812	-83.65539	154.91277	-1381.41162	-138.46373	136.59317	-1436.62756	19.75871	58.84671	-1370.16321	112.20896	1702.43945	-1496.50476	-1972.99219	1023.74866	3102.02808	-2012.52551	1021.98999	3140.74805	NaN	NaN	NaN
164	1.63	111.2209	1662.67456	-1586.32983	127.94739	1667.93665	-1473.58923	-9.58554	1632.31506	-1575.24097	4.72249	1637.72729	-1454.70483	-65.59022	1433.86096	-1530.14929	-101.4053	1139.78101	-1511.41333	76.87387	1365.03259	-1527.56396	119.43835	1210.19263	-1529.3103	-120.96173	1239.10828	-1447.18555	18.36597	1391.41528	-1689.66125	2.81516	1206.09546	-1774.34583	9.73891	1053.89453	-1779.37585	75.59093	960.35101	-1805.14868	184.4158	872.62659	-1786.75513	132.62486	852.87549	-1811.61267	198.1611	799.84833	-1821.81042	13.74072	1395.15381	-1375.6969	-48.39442	1197.08813	-1273.32275	-50.77426	1071.41162	-1270.8418	-20.41975	954.44116	-1239.88623	64.23458	841.06775	-1258.64282	21.30313	839.93402	-1219.21924	61.4923	763.97443	-1222.87952	70.87531	931.96777	-1615.08069	74.53239	941.15399	-1398.57983	-114.52898	941.46948	-1557.09998	-108.56953	945.47656	-1411.54126	51.60038	597.40448	-1652.80066	48.50642	463.76733	-1629.85522	-7.89791	281.6864	-1633.82568	-49.63145	69.21636	-1577.8114	-97.56715	40.79254	-1526.05481	96.67644	32.91946	-1580.51794	111.29735	619.37897	-1324.09424	151.80524	465.81375	-1341.79468	39.89309	328.06882	-1336.83826	-62.18528	148.35382	-1381.54138	-116.28216	126.99764	-1436.74561	45.127	56.72814	-1370.09912	119.39548	1702.36096	-1496.45447	-1973.10999	1023.42694	3101.90942	-2012.62317	1022.12231	3140.55225	NaN	NaN	NaN
165	1.64	118.41029	1662.62598	-1586.20667	134.9933	1667.71753	-1473.46985	-2.47643	1632.43298	-1575.29358	11.71643	1637.58093	-1454.93188	-58.82267	1433.86584	-1530.2616	-94.96343	1139.91699	-1511.85645	83.93736	1365.20959	-1528.00293	125.97231	1210.07373	-1529.79541	-114.37733	1239.17322	-1447.67725	25.0826	1391.58289	-1689.83032	10.03177	1206.51501	-1774.87598	17.93346	1054.21875	-1780.31714	85.61646	961.80756	-1805.95483	195.88879	876.14417	-1787.50903	144.55011	855.39117	-1812.46008	211.07245	803.68182	-1822.64807	20.52917	1395.04517	-1375.87744	-42.24176	1196.99963	-1273.77759	-45.06013	1071.44128	-1271.27454	-15.62336	954.31287	-1240.26709	68.18781	840.23676	-1258.54456	24.93244	839.43671	-1219.39075	64.48164	763.26788	-1222.87378	76.94402	931.70874	-1615.61133	80.98214	941.22058	-1399.1781	-108.44587	941.56201	-1557.30933	-102.1529	945.64587	-1411.70581	54.87452	596.91937	-1653.00049	50.94844	463.27612	-1630.08838	-6.42741	281.55951	-1633.86023	-49.46025	69.39944	-1577.79944	-97.55994	41.13297	-1526.03674	96.7811	32.76958	-1580.4823	119.72541	620.35834	-1324.72815	161.4537	466.94888	-1342.68091	54.86555	325.06183	-1337.547	-40.09016	141.42992	-1381.81079	-93.77403	117.98342	-1436.96802	70.99315	55.009	-1370.20959	126.52805	1702.15503	-1496.28772	-1973.12024	1023.4259	3101.90967	-2012.54858	1022.14349	3140.77979	NaN	NaN	NaN
